HIERARCHY
ROOT Hips
{
    OFFSET 0.000000 0.000000 0.000000
    CHANNELS 6 Xposition Yposition Zposition Zrotation Xrotation Yrotation
    JOINT Spine
    {
        OFFSET -0.000000 14.517291 0.000000
        CHANNELS 3 Zrotation Xrotation Yrotation
        JOINT Spine1
        {
            OFFSET -0.000000 37.558300 0.000000
            CHANNELS 3 Zrotation Xrotation Yrotation
            JOINT Neck
            {
                OFFSET -0.000000 37.404057 3.400369
                CHANNELS 3 Zrotation Xrotation Yrotation
                JOINT Head
                {
                    OFFSET -0.000000 24.785618 -3.540803
                    CHANNELS 3 Zrotation Xrotation Yrotation
                    End Site
                    {
                        OFFSET -0.000000 35.408028 0.000000
                    }
                }
            }
            JOINT LeftShoulder
            {
                OFFSET 6.992933 33.973492 -0.192664
                CHANNELS 3 Zrotation Xrotation Yrotation
                JOINT LeftArm
                {
                    OFFSET 21.527611 0.000000 0.000000
                    CHANNELS 3 Zrotation Xrotation Yrotation
                    JOINT LeftForeArm
                    {
                        OFFSET 56.353916 0.000000 0.000000
                        CHANNELS 3 Zrotation Xrotation Yrotation
                        JOINT LeftHand
                        {
                            OFFSET 47.774071 0.000000 0.000000
                            CHANNELS 3 Zrotation Xrotation Yrotation
                            End Site
                            {
                                OFFSET 26.556021 0.000000 0.000000
                            }
                        }
                    }
                }
            }
            JOINT RightShoulder
            {
                OFFSET -7.065357 33.973492 -0.192664
                CHANNELS 3 Zrotation Xrotation Yrotation
                JOINT RightArm
                {
                    OFFSET -21.527611 0.000000 0.000000
                    CHANNELS 3 Zrotation Xrotation Yrotation
                    JOINT RightForeArm
                    {
                        OFFSET -56.353916 0.000000 0.000000
                        CHANNELS 3 Zrotation Xrotation Yrotation
                        JOINT RightHand
                        {
                            OFFSET -47.774071 0.000000 0.000000
                            CHANNELS 3 Zrotation Xrotation Yrotation
                            End Site
                            {
                                OFFSET -26.556021 0.000000 0.000000
                            }
                        }
                    }
                }
            }
        }
    }
    JOINT LeftUpLeg
    {
        OFFSET 17.704014 0.000000 0.000000
        CHANNELS 3 Zrotation Xrotation Yrotation
        JOINT LeftLeg
        {
            OFFSET -0.000000 -81.181816 0.000000
            CHANNELS 3 Zrotation Xrotation Yrotation
            JOINT LeftFoot
            {
                OFFSET -0.000000 -62.821102 0.000000
                CHANNELS 3 Zrotation Xrotation Yrotation
                JOINT LeftToeBase
                {
                    OFFSET -0.000000 -11.507608 26.556021
                    CHANNELS 3 Zrotation Xrotation Yrotation
                    End Site
                    {
                        OFFSET -0.000000 0.000000 7.081605
                    }
                }
            }
        }
    }
    JOINT RightUpLeg
    {
        OFFSET -17.704014 0.000000 0.000000
        CHANNELS 3 Zrotation Xrotation Yrotation
        JOINT RightLeg
        {
            OFFSET -0.000000 -81.181816 0.000000
            CHANNELS 3 Zrotation Xrotation Yrotation
            JOINT RightFoot
            {
                OFFSET -0.000000 -62.821102 0.000000
                CHANNELS 3 Zrotation Xrotation Yrotation
                JOINT RightToeBase
                {
                    OFFSET -0.000000 -11.507608 26.556021
                    CHANNELS 3 Zrotation Xrotation Yrotation
                    End Site
                    {
                        OFFSET -0.000000 0.000000 7.081605
                    }
                }
            }
        }
    }
}
MOTION
Frames:    9
Frame Time:    0.008333
-21.818546    164.487640    -79.681030    -9.160759    -21.939390    42.443634    2.972361    4.779496    -4.929941    4.884207    8.955205    -1.986626    21.313704    -1.166003    -0.878471    0.584233    -2.157754    -4.248313    12.592942    6.699909    -21.299479    -36.478760    22.391083    -37.688015    -2.117524    -33.932243    -110.439697    -2.741769    -36.207836    -11.275635    8.696247    4.453899    -10.518040    23.520103    3.394157    19.764456    6.857466    2.780910    51.754047    -4.309929    -1.573187    26.735289    24.616287    -0.495264    5.981164    -4.937159    34.934074    -16.514524    8.325033    -20.437778    35.469444    0.000000    0.000000    0.000000    -87.307007    -44.966988    -54.548862    7.714155    15.321165    -9.291082    21.193686    13.824416    -36.554085    0.000000    0.000000    0.000000    
-21.821276    164.489975    -79.702805    -9.179415    -21.894464    42.450859    2.962597    4.776625    -4.925153    4.892169    8.950719    -1.985662    21.298689    -1.148382    -0.879804    0.577353    -2.265404    -4.244411    12.596278    6.699420    -21.286037    -36.500473    22.365858    -37.724174    -2.142432    -33.876427    -110.455650    -2.719385    -36.185143    -11.272287    8.705080    4.446499    -10.533762    23.603758    3.696014    19.581455    6.805059    2.240547    50.707790    -4.150996    -1.964239    26.481268    24.595898    -0.552726    5.968407    -4.953843    34.936413    -16.539539    8.334957    -20.411814    35.511326    0.000000    0.000000    0.000000    -87.350952    -44.941650    -54.553440    7.722438    15.293035    -9.308261    21.200291    13.815604    -36.578400    0.000000    0.000000    0.000000    
-21.831739    164.488251    -79.728317    -9.212350    -21.835405    42.448483    2.960289    4.755150    -4.914824    4.882096    8.938603    -1.981161    21.333988    -1.124612    -0.871269    0.524246    -2.364952    -4.244938    12.608085    6.701705    -21.284847    -36.501102    22.361555    -37.754723    -2.134813    -33.867981    -110.452156    -2.714607    -36.167854    -11.288036    8.741312    4.430154    -10.546677    23.671093    4.018451    19.383196    6.629067    1.758933    49.758137    -4.210532    -2.285910    25.884596    24.578217    -0.625626    5.967476    -4.986876    34.931492    -16.502764    8.364887    -20.384485    35.515820    0.000000    0.000000    0.000000    -87.421204    -44.945045    -54.621544    7.694354    15.292556    -9.305317    21.207346    13.823892    -36.609604    0.000000    0.000000    0.000000    
-21.829241    164.495270    -79.746986    -9.224621    -21.804319    42.463474    2.967830    4.756707    -4.915782    4.865469    8.937670    -1.980047    21.387787    -1.112979    -0.853677    0.451433    -2.444224    -4.244746    12.626051    6.707621    -21.281029    -36.517464    22.340076    -37.781506    -2.129413    -33.842899    -110.452538    -2.739607    -36.134747    -11.311546    8.771279    4.403968    -10.560241    23.771837    4.363596    19.191437    6.154965    1.443700    48.477386    -4.054228    -2.300680    26.937155    24.559336    -0.657416    5.964406    -4.993769    34.906353    -16.487553    8.380274    -20.357014    35.501198    0.000000    0.000000    0.000000    -87.436295    -44.913975    -54.645866    7.677231    15.263186    -9.279959    21.225492    13.804995    -36.624939    0.000000    0.000000    0.000000    
-21.825357    164.493973    -79.765610    -9.232178    -21.760845    42.475121    2.966704    4.747452    -4.912220    4.846470    8.936666    -1.977428    21.403715    -1.084857    -0.851063    0.438738    -2.529210    -4.240967    12.642270    6.719135    -21.286215    -36.526905    22.340885    -37.805695    -2.110404    -33.863728    -110.449959    -2.755576    -36.130978    -11.337523    8.809722    4.390034    -10.584310    23.853582    4.617550    19.035522    5.859729    1.146173    47.385021    -4.017041    -2.395951    27.127237    24.529867    -0.685422    5.975290    -5.003524    34.869736    -16.473141    8.396494    -20.336027    35.487022    0.000000    0.000000    0.000000    -87.430542    -44.873093    -54.773872    7.621472    15.180198    -9.119003    21.216005    13.804608    -36.654633    0.000000    0.000000    0.000000    
-21.820566    164.500000    -79.777855    -9.232691    -21.740667    42.487755    2.970291    4.751339    -4.912139    4.833949    8.947636    -1.976824    21.432512    -1.081978    -0.839427    0.408943    -2.572381    -4.237774    12.652443    6.714932    -21.294203    -36.537529    22.336220    -37.806355    -2.083103    -33.869904    -110.437424    -2.736485    -36.106628    -11.315687    8.847516    4.371627    -10.615605    23.963596    4.922960    18.872084    5.403307    0.805464    46.390312    -3.945862    -2.465203    27.189796    24.511820    -0.687101    6.010384    -4.976333    34.829369    -16.499502    8.386964    -20.328604    35.452595    0.000000    0.000000    0.000000    -87.359840    -44.809860    -54.897346    7.562706    15.053871    -8.859657    21.216766    13.770774    -36.691231    0.000000    0.000000    0.000000    
-21.810612    164.499039    -79.797150    -9.233577    -21.702093    42.498577    2.971051    4.737637    -4.911630    4.809036    8.957832    -1.975234    21.455366    -1.056930    -0.831828    0.401421    -2.635083    -4.229771    12.669573    6.719809    -21.304264    -36.549873    22.339046    -37.813839    -2.065767    -33.888527    -110.429794    -2.715329    -36.105721    -11.319440    8.885934    4.345323    -10.655953    24.067705    5.089643    18.775822    5.130105    0.599316    45.268177    -3.910884    -2.495171    27.439100    24.474203    -0.707791    6.061951    -4.943370    34.803581    -16.521557    8.388345    -20.321787    35.423855    0.000000    0.000000    0.000000    -87.550873    -44.273819    -53.911263    8.872890    14.510221    -8.370255    21.137871    13.165147    -38.203831    0.000000    0.000000    0.000000    
-21.802261    164.500122    -79.814812    -9.225939    -21.674198    42.505638    2.964925    4.734587    -4.915711    4.798263    8.976222    -1.976591    21.449955    -1.055207    -0.819158    0.425367    -2.662150    -4.211314    12.669864    6.707778    -21.312237    -36.559574    22.361452    -37.792332    -2.048396    -33.924007    -110.429138    -2.723791    -36.119461    -11.314611    8.918994    4.330950    -10.697558    24.183529    5.395227    18.676348    4.527380    0.359695    44.253803    -3.628771    -2.385971    27.996737    24.442532    -0.713773    6.097790    -4.923076    34.780518    -16.543913    8.395399    -20.309362    35.397663    0.000000    0.000000    0.000000    -87.566032    -44.257607    -53.878948    8.871330    14.474006    -8.381213    21.146671    13.149248    -38.233093    0.000000    0.000000    0.000000    
-21.788963    164.499283    -79.832123    -9.218118    -21.650204    42.516407    2.975610    4.736341    -4.924249    4.785647    8.977028    -1.978269    21.135366    -1.060058    -0.876853    0.849264    -2.646652    -4.150930    12.645073    6.698494    -21.332176    -36.568672    22.371454    -37.743942    -2.033115    -33.941498    -110.425743    -2.717751    -36.119404    -11.297379    8.937234    4.337040    -10.748743    24.301060    5.635628    18.650188    4.319379    -0.400844    43.054260    -6.147912    -3.559851    26.640823    24.408968    -0.722584    6.108528    -4.909190    34.761570    -16.556231    8.388356    -20.306019    35.392757    0.000000    0.000000    0.000000    -87.573936    -44.239979    -53.891586    8.838781    14.452729    -8.326714    21.172123    13.139586    -38.261440    0.000000    0.000000    0.000000    
